<?xml version="1.0" encoding="utf-8"?>
<!-- Generator: Adobe Illustrator 27.0.0, SVG Export Plug-In . SVG Version: 6.00 Build 0)  -->
<svg version="1.1" id="M" xmlns="http://www.w3.org/2000/svg" xmlns:xlink="http://www.w3.org/1999/xlink" x="0px" y="0px"
	 viewBox="0 0 528.55 526.21" style="enable-background:new 0 0 528.55 526.21;" xml:space="preserve">
<style type="text/css">
	.st0{fill:#FFFFFF;stroke:#000000;stroke-width:14;stroke-miterlimit:10;}
	.st1{fill:#FFFFFF;enable-background:new    ;}
	.st2{fill:#010101;}
</style>
<path class="st0" d="M261.04,269.49l86.22-120.96c14.88-20.88,38.94-33.27,64.58-33.27h0c29.98,0,54.28,24.3,54.28,54.28v309.41
	c0,21.9-17.75,39.65-39.65,39.65h-21.93c-21.9,0-39.65-17.75-39.65-39.65V307.04c0-3.59-4.38-5.33-6.85-2.72l-89.94,95.21
	c-16.33,17.29-43.81,17.41-60.29,0.26l-90.51-94.18c-2.98-3.1-8.21-0.99-8.21,3.3l-0.06,170.06c-0.01,21.89-17.76,39.64-39.65,39.64
	H47.76c-21.9,0-39.65-17.75-39.65-39.65V174.2c0-32.55,26.39-58.93,58.93-58.94h0c26.21,0,50.72,12.95,65.5,34.59l81.34,119.16
	C225.16,285.54,249.43,285.78,261.04,269.49z"/>
<path class="st1" d="M519.8,57.57l-38.47,54.77c-1.53,2.17-4.54,2.69-6.72,1.16c-0.05-0.04-0.11-0.08-0.16-0.12
	c-23.68-18.02-51.8-29.28-81.37-32.6c-2.65-0.28-4.56-2.66-4.28-5.3c0.01-0.07,0.02-0.13,0.03-0.2l10.03-66.18
	c0.4-2.63,2.85-4.43,5.48-4.04c1.04,0.16,2,0.65,2.73,1.4l23.21,23.87c1.74,1.79,4.55,1.95,6.48,0.38L465.07,7.7
	c2.06-1.68,5.09-1.36,6.77,0.7c0.57,0.7,0.93,1.54,1.04,2.43l4.58,36.19c0.31,2.47,2.46,4.3,4.95,4.2l33.27-1.23
	c2.66-0.1,4.89,1.97,4.99,4.63C520.7,55.67,520.4,56.71,519.8,57.57z"/>
<path class="st2" d="M526.64,51.14c-1.74-3.22-5.16-5.17-8.81-5.02l-33.27,1.23l-4.58-36.19c-0.67-5.27-5.48-9.01-10.75-8.34
	c-1.78,0.23-3.47,0.95-4.86,2.08l-28.31,23.01L412.83,4.04c-3.71-3.81-9.8-3.89-13.61-0.19c-1.51,1.46-2.49,3.38-2.81,5.46
	l-10.03,66.18c-0.4,2.59,0.28,5.22,1.88,7.29c1.61,2.08,3.99,3.42,6.61,3.72c28.7,3.22,56,14.16,78.99,31.65
	c2.09,1.59,4.74,2.27,7.34,1.87c2.59-0.39,4.9-1.83,6.39-3.97l38.47-54.77C528.17,58.27,528.39,54.34,526.64,51.14z M479.69,110.48
	c-24.38-18.56-53.34-30.15-83.79-33.55l0-0.01l0,0l10.03-66.18l23.21,23.87c3.46,3.6,9.11,3.93,12.97,0.76l28.31-23.01L475,48.56
	c0.61,4.96,4.92,8.61,9.9,8.41l33.27-1.23L479.69,110.48z M467.21,84.98c-1.24,2.35-4.14,3.25-6.49,2.01c0,0-0.01,0-0.01-0.01
	c-11.08-5.85-22.74-10.52-34.8-13.95c-2.55-0.73-4.03-3.4-3.3-5.95c0.73-2.54,3.37-4.02,5.92-3.3c12.7,3.6,24.99,8.53,36.67,14.69
	C467.56,79.72,468.46,82.63,467.21,84.98C467.21,84.98,467.21,84.98,467.21,84.98z"/>
</svg>
